<svg height="2500" viewBox="0 0 1500 1500" width="2500" xmlns="http://www.w3.org/2000/svg"><switch><g><path d="m0 0h1500v1500h-1500z" fill="#fff"/><g fill="#ff1e00"><path clip-rule="evenodd" d="m1198.9 482.1-324.5 324.4h201.6l324.4-324.4zm-1095.1 324.4 242.8-242.8c54.3-54.3 120.4-81.7 197.2-81.7h627.2l-121.7 121.7h-473.6c-55.8 0-103.9 19.9-143.4 59.4l-143.4 143.4z" fill-rule="evenodd"/><path clip-rule="evenodd" d="m320.6 806.5 138-138c29.6-29.6 65.7-44.5 107.5-44.5h463l-112.8 112.8h-317.3c-25.8 0-48.1 9.2-66.3 27.5l-42.2 42.2z" fill-rule="evenodd"/><path d="m1172.2 806.5v-34.1h-12.5v-6.9h33.6v6.9h-12.5v34.1zm26.6 0v-41h12.8l7.6 28 7.5-28h12.9v41h-7.9v-32.3l-8.4 32.3h-8.2l-8.4-32.3v32.3z"/></g><path d="m369.1 850.4h52.9v8.8h-42.7v19.3h42.7v8.8h-42.7v29.1h-10.1v-66zm64.9 8.6v-8.6h9.7v8.6zm0 4.6h9.7v52.8h-9.7zm70.7 52.7h-32.5c-5 0-9-1-11.8-3.1s-4.3-5.2-4.3-9.5c0-2.9 1-5.4 3.1-7.6s5-4.7 8.7-7.4l22.3-16.8h-33.4v-8.4h28.1c6.7 0 11.7 1.7 15 5.2s5 8.1 5 13.9v33.7zm-9.7-8.8v-28.8l-23.7 17.9c-1.6 1.2-2.9 2.3-3.9 3.1-.9.9-1.4 2-1.4 3.6 0 1.5.6 2.5 1.7 3.2 1.1.6 2.4 1 4 1zm47.5-57.1h52.9v8.8h-42.7v19.3h42.7v8.8h-42.7v29.1h-10.1v-66zm116.1 43.9c0 7.3-2 13-6.1 17.1-4 4.1-10 6.1-17.8 6.1h-6.6c-8.2 0-14.2-2-18.1-6.1-3.8-4.1-5.8-9.8-5.8-17.1v-8.6c0-7.3 1.9-13 5.8-17.1 3.8-4.1 9.9-6.1 18.1-6.1h6.6c7.8 0 13.7 2 17.8 6.1 4 4.1 6.1 9.8 6.1 17.1zm-12.8-20.3c-1.8-2.2-5.1-3.3-9.8-3.3h-9.1c-4.5 0-7.6 1.1-9.5 3.3s-2.9 5.6-2.9 10.3v11.3c0 4.7 1 8.1 2.9 10.3s5.1 3.3 9.5 3.3h9.1c4.7 0 8-1.1 9.8-3.3s2.7-5.6 2.7-10.3v-11.3c0-4.7-.9-8.1-2.7-10.3zm30.6-6.3c3.4-2.8 7.6-4.1 12.8-4.1h15.3v8.4h-15.7c-2.8 0-4.7.5-5.9 1.5s-1.8 2.9-1.8 5.6v37.3h-9.7v-36.5c0-5.4 1.7-9.4 5-12.2zm36.9-4.1h61c6.6 0 11.4 1.7 14.4 5s4.6 7.6 4.6 12.8v34.9h-9.7v-35.3c0-3.3-.7-5.5-2-6.8-1.3-1.2-3.6-1.8-6.7-1.8h-16.8v44h-9.7v-44h-25.4v44h-9.7zm143 52.7h-29.7c-6.6 0-11.5-1.6-14.5-4.8s-4.6-7.9-4.6-14.1v-33.9h9.7v34.9c0 3.5.7 5.8 2 7.1s3.6 1.9 6.7 1.9h20.8v-44h9.7v52.9zm24.6-65.9v66h-9.7v-66zm61 65.9h-32.5c-5 0-9-1-11.8-3.1s-4.3-5.2-4.3-9.5c0-2.9 1-5.4 3.1-7.6s5-4.7 8.7-7.4l22.3-16.8h-33.4v-8.4h28.1c6.7 0 11.7 1.7 15 5.2s5 8.1 5 13.9v33.7zm-9.7-8.8v-28.8l-23.7 17.9c-1.6 1.2-2.9 2.3-3.9 3.1-.9.9-1.4 2-1.4 3.6 0 1.5.6 2.5 1.7 3.2 1.1.6 2.4 1 4 1zm109.6-7c-1.1 3.5-2.9 6.6-5.2 9.1s-5.4 4.4-9 5.8-8 2.1-13.1 2.1h-8.8c-5 0-9.4-.7-13.1-2.1s-6.7-3.3-9.1-5.8c-2.3-2.5-4.1-5.5-5.2-9.1-1.1-3.5-1.7-7.5-1.7-11.8v-10.6c0-4.4.6-8.4 1.7-11.9s2.8-6.6 5.2-9.1c2.3-2.5 5.4-4.5 9.1-5.8s8.1-2 13.1-2h8.8c5 0 9.4.7 13.1 2s6.7 3.3 9 5.8 4.1 5.6 5.2 9.1 1.7 7.5 1.7 11.9v10.6c0 4.3-.6 8.2-1.7 11.8zm-50.3 3.7c2.6 2.9 6.9 4.4 12.8 4.4h11.4c6 0 10.3-1.5 12.9-4.4s3.8-7.3 3.8-13.2v-15.4c0-5.9-1.3-10.3-3.8-13.2-2.6-2.9-6.8-4.4-12.9-4.4h-11.4c-6 0-10.3 1.5-12.8 4.4-2.6 2.9-3.9 7.3-3.9 13.2v15.4c0 5.9 1.3 10.3 3.9 13.2zm63.9-40.6h29.7c6.6 0 11.5 1.6 14.5 4.8s4.6 7.9 4.6 14.1v33.9h-9.7v-34.9c0-3.5-.7-5.8-2-7.1s-3.6-1.9-6.7-1.9h-20.8v44h-9.7v-52.9zm71.7 29.7v4.3c0 3.5 1.1 6.1 3.3 7.8s5.6 2.6 10.1 2.6h26.5v8.4h-25.2c-3.6 0-7-.4-10-1.2s-5.7-2-7.8-3.7c-2.2-1.7-3.9-3.9-5.1-6.5s-1.8-5.8-1.8-9.5v-9.2c0-7.7 2-13.6 6.1-17.5s10-5.9 17.7-5.9h4.8c7.7 0 13.4 1.7 17.2 5.2s5.7 8.6 5.7 15.6v9.8h-41.5zm12.4-22.2c-4.5 0-7.6 1-9.5 3s-2.9 5.6-2.9 10.7v.4h31.4v-3.1c0-3.9-.8-6.8-2.4-8.5s-4.7-2.6-9.2-2.6h-7.4zm-749.5 122.4c.2.8.5 1.4.8 1.8s.7.6 1.2.6.9-.1 1.1-.4.5-.9.7-1.8l10.1-43.4c.9-3.8 2.1-6.8 3.7-9.1s4.2-3.5 7.8-3.5c3.8 0 6.4 1.2 8 3.7 1.6 2.4 2.8 5.5 3.6 9.1l9.9 43c.2 1 .5 1.7.7 2 .3.3.7.5 1.3.5.5 0 .8-.2 1.1-.6s.5-1 .7-1.8l15.1-54.7h10.5l-15.6 55.4c-1.1 3.7-2.4 6.6-4.1 8.6-1.7 2.1-4.3 3.1-7.8 3.1-3.9 0-6.7-1.1-8.4-3.3s-2.9-5-3.7-8.5l-9.9-43.8c-.2-.8-.4-1.4-.6-1.8s-.5-.7-1-.7-.9.2-1.1.6-.4 1-.5 1.8l-10 43.9c-.8 3.5-2 6.4-3.7 8.5-1.7 2.2-4.4 3.3-8.2 3.3-3.6 0-6.2-1-8-3-1.7-2-3.1-4.9-4.2-8.7l-15.6-55.4h10.6zm135.2-10.8c0 7.3-2 13-6.1 17.1-4 4.1-10 6.1-17.8 6.1h-6.6c-8.2 0-14.2-2-18.1-6.1s-5.8-9.8-5.8-17.1v-8.7c0-7.3 1.9-13 5.8-17.1 3.8-4.1 9.9-6.1 18.1-6.1h6.6c7.8 0 13.7 2 17.8 6.1 4 4.1 6.1 9.8 6.1 17.1zm-12.8-20.3c-1.8-2.2-5.1-3.3-9.8-3.3h-9.1c-4.5 0-7.6 1.1-9.5 3.3s-2.9 5.6-2.9 10.3v11.3c0 4.7 1 8.1 2.9 10.3s5.1 3.3 9.5 3.3h9.1c4.7 0 8-1.1 9.8-3.3s2.7-5.6 2.7-10.3v-11.3c0-4.7-.9-8.1-2.7-10.3zm30.6-6.3c3.4-2.8 7.6-4.1 12.8-4.1h15.3v8.4h-15.7c-2.8 0-4.7.5-5.9 1.5s-1.8 2.9-1.8 5.6v37.3h-9.7v-36.5c-.1-5.4 1.6-9.4 5-12.2zm47.5-17.3v66h-9.7v-66zm64.8 65.9h-29.5c-7 0-12.4-2-16.1-5.9s-5.6-9.6-5.6-16.9v-7.2c0-7.3 1.9-13 5.6-16.9s9.1-5.9 16.1-5.9h19.8v-13.2h9.7zm-9.7-8.3v-36.1h-18.9c-4.6 0-7.8 1-9.7 3s-2.8 5.4-2.8 10.1v9.8c0 4.7.9 8.1 2.8 10.2 1.9 2 5.1 3 9.7 3zm102.6 8.3h-29.1c-5.2 0-9.6-.7-13.3-2s-6.7-3.3-9-5.8-4-5.6-5.1-9.1-1.6-7.5-1.6-11.9v-8.3c0-4.4.5-8.4 1.6-11.9s2.8-6.6 5.1-9.1 5.3-4.5 9-5.8 8.1-2 13.3-2h28.7v8.8h-30c-6.1 0-10.4 1.5-12.9 4.4s-3.8 7.3-3.8 13.2v13.2c0 5.9 1.3 10.3 3.8 13.2s6.8 4.4 12.9 4.4h30.4zm10.5-65.9h9.7v13.2h20.1c6.7 0 11.5 1.6 14.6 4.8 3 3.2 4.5 7.9 4.5 14.1v33.9h-9.7v-34.9c0-3.5-.7-5.8-2-7.1s-3.6-1.9-6.7-1.9h-20.8v44h-9.7zm108.9 65.9h-32.5c-5 0-9-1-11.8-3.1s-4.3-5.2-4.3-9.5c0-2.9 1-5.4 3.1-7.6s5-4.7 8.7-7.4l22.3-16.8h-33.4v-8.3h28.1c6.7 0 11.7 1.7 15 5.2s5 8.1 5 13.9v33.6zm-9.6-8.7v-28.8l-23.7 17.9c-1.6 1.2-2.9 2.3-3.9 3.1-.9.9-1.4 2-1.4 3.6 0 1.5.6 2.5 1.7 3.2 1.1.6 2.4 1 4 1zm23.7-44h61c6.6 0 11.4 1.7 14.4 5s4.6 7.6 4.6 12.8v34.9h-9.7v-35.4c0-3.3-.7-5.5-2-6.8-1.3-1.2-3.6-1.8-6.7-1.8h-16.8v44h-9.7v-44h-25.5v44h-9.7v-52.7zm95 0h29.5c7 0 12.3 2 16.1 5.9s5.6 9.6 5.6 16.9v7.2c0 7.3-1.9 13-5.6 16.9-3.8 3.9-9.1 5.9-16.1 5.9h-19.8v13.2h-9.7zm9.7 8.8v35.2h18.9c4.6 0 7.8-.9 9.7-2.8s2.8-5.2 2.8-9.9v-9.8c0-4.7-.9-8-2.8-9.9s-5.1-2.8-9.7-2.8zm55.2-13.4v-8.6h9.7v8.6zm0 4.6h9.7v52.8h-9.7zm77.5 30.7c0 7.3-2 13-6.1 17.1-4 4.1-10 6.1-17.8 6.1h-6.6c-8.2 0-14.2-2-18.1-6.1-3.8-4.1-5.8-9.8-5.8-17.1v-8.7c0-7.3 1.9-13 5.8-17.1 3.8-4.1 9.9-6.1 18.1-6.1h6.6c7.8 0 13.7 2 17.8 6.1 4 4.1 6.1 9.8 6.1 17.1zm-12.8-20.3c-1.8-2.2-5.1-3.3-9.8-3.3h-9.1c-4.5 0-7.6 1.1-9.5 3.3s-2.9 5.6-2.9 10.3v11.3c0 4.7 1 8.1 2.9 10.3s5.1 3.3 9.5 3.3h9.1c4.8 0 8-1.1 9.8-3.3s2.7-5.6 2.7-10.3v-11.3c0-4.7-.9-8.1-2.7-10.3zm25.6-10.4h29.7c6.6 0 11.5 1.6 14.5 4.8s4.6 7.9 4.6 14.1v33.9h-9.7v-34.9c0-3.5-.7-5.8-2-7.1s-3.6-1.9-6.7-1.9h-20.8v44h-9.7v-52.9zm75.6 29c-4.9-1.1-8.8-2.7-11.6-5s-4.2-5.4-4.2-9.5c0-4.3 1.6-7.8 4.8-10.5s8.1-4 14.5-4h26.6v8.4h-28.3c-3 0-5 .6-6.1 1.7s-1.6 2.4-1.6 4 .6 2.9 1.7 3.9 3.1 1.7 6.1 2.3l12.8 2.6c5.5 1.1 9.7 2.7 12.7 4.9 3 2.1 4.5 5.4 4.5 9.8 0 4.6-1.7 8.3-5 11-3.3 2.8-8.8 4.2-16.4 4.2h-25.4v-8.4h27.7c3.7 0 6.2-.6 7.5-1.7s1.9-2.6 1.9-4.4-.7-3.1-2-4-3.8-1.7-7.3-2.5zm42.4-42.2h9.7v13.2h20.1c6.7 0 11.5 1.6 14.6 4.8 3 3.2 4.5 7.9 4.5 14.1v33.9h-9.7v-34.9c0-3.5-.7-5.8-2-7.1s-3.6-1.9-6.7-1.9h-20.8v44h-9.7zm63.8 8.6v-8.6h9.7v8.6zm0 4.6h9.7v52.8h-9.7zm25.5 0h29.5c7 0 12.3 2 16.1 5.9s5.6 9.6 5.6 16.9v7.2c0 7.3-1.9 13-5.6 16.9-3.8 3.9-9.1 5.9-16.1 5.9h-19.8v13.2h-9.7zm9.7 8.8v35.2h18.9c4.6 0 7.8-.9 9.7-2.8s2.8-5.2 2.8-9.9v-9.8c0-4.7-.9-8-2.8-9.9s-5.1-2.8-9.7-2.8zm-1092.4-118.1c-13.6 0-26.5 3.4-37.8 9.4-9.1-4.9-19.3-8-30.1-9h-.5c-.6-.1-1.2-.1-1.8-.1h-.7c-.6 0-1.1-.1-1.7-.1h-3.1c-44.4 0-80.4 36-80.4 80.4s36 80.5 80.5 80.5h3c.5 0 1.1 0 1.6-.1.3 0 .6 0 .8-.1.5 0 1-.1 1.5-.1.3 0 .5 0 .8-.1.6-.1 1.2-.1 1.8-.2.2 0 .3 0 .5-.1.7-.1 1.5-.2 2.2-.3.2 0 .4-.1.6-.1.6-.1 1.1-.2 1.7-.3.2 0 .5-.1.7-.1.5-.1 1.1-.2 1.6-.3.2 0 .4-.1.6-.1.7-.2 1.3-.3 2-.5h.2c6.3-1.6 12.4-4 18-7 11.3 6 24.2 9.4 37.8 9.4 44.5 0 80.5-36 80.5-80.5.2-44.6-35.8-80.6-80.3-80.6zm-50.6 63.8c2.2 0 4.3-.5 6.1-1.4.3 1.5.6 3.1.8 4.6h-20.2v11.6h-9.6v-29.1c2.9-.1 5.8-.3 8.7-.6-.1 8.2 6.3 14.9 14.2 14.9zm-23.9 17.7h10.6v30.3c-3.5-.5-7-.7-10.6-.8zm-31.5-10.6c-.2 0-.4.2-.4.2s.2-.2.2-.4v-10.6s-.4-.3 0-.4c-.4.1-.1-.3-.1-.3h27v-10.3c1 0 1.9.1 2.9.1v29.5h-5.8v-7.7c0-.1-23.6-.1-23.8-.1zm29.5-24.1c-1 0-1.9 0-2.9-.1v-10.5h-17.4c5.1-10.6 11.9-20.3 20.3-28.6zm-60.6-10.6v42.4h-14.3c.3-19 7.7-36.3 19.6-49.4 3.1 2.6 6.4 4.9 9.7 7zm0 45.3v42.4h16.2c-3.8 2.3-7.4 4.8-10.8 7.6-12.1-13.3-19.5-30.8-19.8-50zm30.8 29.8c.6 1.7 1.2 3.3 1.8 4.9-.6.2-1.2.4-1.8.7zm0-9.7v-8.2c0-.3-.2-.5-.2-.5s.3.2.5.2h23.8v-11.6h5.8v29.6c-8.7.1-17.3 1.5-25.5 4.1-1.8-4.5-3.3-9-4.4-13.6zm29.9 12.3v38.5c-10.6-9.8-18.9-21.6-24.5-34.5 7.8-2.5 16.1-3.9 24.5-4zm1.9.1c3.6.1 7.1.3 10.6.8v9.1h11.8c-5.6 10.6-13.2 20.4-22.4 28.6zm38.5-32.5h20.3l-13.1 42.4h15.8c-1.9 2.7-3.9 5.2-6.1 7.6-5.2-4.3-10.9-8-16.9-10.9zm20.7-2.9h-20.7v-11.6h-3.5c-.3-2-.6-4-1.1-6 3.7-2.7 6.1-7.1 6.1-12 0-3-.9-5.8-2.4-8.1 6.2-3 12-6.7 17.4-11.1 5.4 5.9 9.8 12.7 13.1 20.1zm-49.8-32.4c-3.1.4-6.2.6-9.4.7v-38.5c8.2 7.6 15.1 16.4 20.3 26-5.5 1.5-9.8 6.1-10.9 11.8zm-11.7-41.7c-10.2 9-18.5 19.8-24.4 31.7h-15.2c-4.7-2.5-9.1-5.5-13.2-8.9 13.4-13.8 32.1-22.5 52.8-22.8zm-38.3 119.4h8.8v-4c.9-.4 1.9-.7 2.8-1.1 6 14.1 15.3 26.9 27 37.3v.1c-20.8-.3-39.5-9-53-22.8 4.6-3.7 9.4-6.9 14.4-9.5zm40.6 32.2c10.3-9.1 18.6-20.2 24.6-32.3h13v-.3c5.2 2.7 10.2 6 14.8 9.8-13.4 13.8-31.9 22.5-52.4 22.8zm66.7-32.2h9.5l2.4-9.6c.2-.6.1-.7 0-.8s-.2-.4-.2-.4.3.2.6.2h19.5c.3-.5.6-.7.6-.7s-.2.3-.3.4c0 .1-.1.2.1.8 1.3 5.8 2.3 9.1 2.3 9.1h7.7s-20.9 12.2-33.5 12.2c-5.3 0-10.5-.7-15.6-2.2 2.6-2.8 6.9-9 6.9-9zm16.7-30.6s.2-.3.3-.4c0-.1.1-.3.3-.8 2.4-9.7 4.6-18.4 5-20 .1-.5.1-1.6.1-1.6s0 1.1.2 1.6c.5 2 2.4 10.5 4.7 20 .1.5.2.7.3.8s.3.4.3.4-.3-.3-.6-.2h-9.9c-.4-.1-.7.2-.7.2zm24.5-56.1h-35.9l-1.8 5.8c-2.9-5.5-6.3-10.5-10.3-15.2 5-1.5 10.3-2.2 15.6-2.2 14.6 0 28.4 5.7 38.7 16 10.3 10.4 16 24.1 16 38.7 0 7.5-1.5 14.6-4.3 21.2zm-72.4 1.4c-2.7-2.9-6.6-4.7-10.9-4.7h-1.1c-5.8-10.9-13.6-20.8-23.1-29.2 20.6.4 39.2 9 52.6 22.8-5.4 4.5-11.3 8.2-17.5 11.1zm22.7 96.6c5.6 1.8 11.5 2.7 17.5 2.7 14 0 27.2-5 37.7-14.1h19.1l-5.1-18.2c3.8-7.7 5.8-16.3 5.8-25.2 0-15.3-6-29.8-16.8-40.6s-25.3-16.8-40.6-16.8c-6 0-11.9.9-17.5 2.7-4.8-5.2-10.2-9.7-16.2-13.5 3-1.5 6.2-2.7 9.4-3.8l2.2 5.9 8.8-2.4-1-6c3.1-.6 6.2-.9 9.3-1.1l.7 6.2h9.1l.6-6c3.2.3 6.3.7 9.3 1.3l-1 6.1 8.8 2.3 2.1-5.6c3 1 5.8 2.3 8.6 3.7l-2.5 5.6 7.9 4.5 3.4-4.8c2.6 1.8 5 3.7 7.4 5.8l-3.8 4.7 6.4 6.4 4.5-3.7c2 2.4 3.9 4.9 5.6 7.5l-4.8 3.5 4.6 7.8 5.3-2.4c1.3 2.8 2.5 5.7 3.5 8.7l-5.5 2.1 2.4 8.8 5.7-1c.6 3 1 6.1 1.2 9.3l-5.9.7.1 9.1 5.8.6c-.2 3-.6 5.9-1.1 8.8l-5.9-.8-2.2 8.8 5.5 2c-1 3-2.2 5.9-3.5 8.7l-5.5-2.3-4.4 8 4.8 3.3c-1.7 2.6-3.6 5.1-5.6 7.5l-4.7-3.7-6.3 6.6 3.8 4.5c-2.3 2.1-4.8 4-7.4 5.8l-3.6-4.8-7.8 4.7 2.6 5.4c-2.8 1.4-5.6 2.6-8.6 3.7l-2.3-5.7-8.7 2.5 1.1 5.9c-3 .6-6.1 1.1-9.3 1.3l-.8-6.1-9.1.2-.5 6c-3.2-.2-6.3-.5-9.3-1.1l.8-6.2-8.8-2.1-2.1 5.8c-3.3-1.1-6.4-2.3-9.4-3.8 6-4 11.4-8.5 16.2-13.7z"/></g></switch></svg>